HIERARCHY
ROOT hip
{
	OFFSET 0.000000 0.000000 0.000000 
	CHANNELS 6 Xposition Yposition Zposition Xrotation Zrotation Yrotation
	JOINT abdomen
	{
		OFFSET 0.000000 3.402643 0.000000 
		CHANNELS 3 Xrotation Zrotation Yrotation
		JOINT chest
		{
			OFFSET 0.000000 8.438565 -0.680529 
			CHANNELS 3 Xrotation Zrotation Yrotation
			JOINT neck
			{
				OFFSET 0.000000 10.207942 -0.272212 
				CHANNELS 3 Xrotation Zrotation Yrotation
				JOINT head
				{
					OFFSET 0.000000 3.130431 0.000000 
					CHANNELS 3 Xrotation Zrotation Yrotation
					End Site
					{
						OFFSET 0.000000 3.130435 0.000000 
					}
				}
			}
			JOINT lCollar
			{
				OFFSET 3.470700 6.669187 -0.816635 
				CHANNELS 3 Yrotation Zrotation Xrotation
				JOINT lShldr
				{
					OFFSET 3.198488 0.000000 0.000000 
					CHANNELS 3 Zrotation Yrotation Xrotation
					JOINT lForeArm
					{
						OFFSET 10.139888 0.000000 0.000000 
						CHANNELS 3 Yrotation Zrotation Xrotation
						JOINT lHand
						{
							OFFSET 8.370511 0.000000 0.000000 
							CHANNELS 3 Zrotation Yrotation Xrotation
							End Site
							{
								OFFSET 4.083176 0.000000 0.000000 
							}
						}
					}
				}
			}
			JOINT rCollar
			{
				OFFSET -3.470700 6.669187 -0.816635 
				CHANNELS 3 Yrotation Zrotation Xrotation
				JOINT rShldr
				{
					OFFSET -3.198488 0.000000 0.000000 
					CHANNELS 3 Zrotation Yrotation Xrotation
					JOINT rForeArm
					{
						OFFSET -10.139888 0.000000 0.000000 
						CHANNELS 3 Yrotation Zrotation Xrotation
						JOINT rHand
						{
							OFFSET -8.370511 0.000000 0.000000 
							CHANNELS 3 Zrotation Yrotation Xrotation
							End Site
							{
								OFFSET -4.083176 0.000000 0.000000 
							}
						}
					}
				}
			}
		}
	}
	JOINT lThigh
	{
		OFFSET 5.308129 -1.633274 1.361059 
		CHANNELS 3 Xrotation Zrotation Yrotation
		JOINT lShin
		{
			OFFSET -2.041588 -20.007561 0.000000 
			CHANNELS 3 Xrotation Zrotation Yrotation
			JOINT lFoot
			{
				OFFSET 0.000000 -19.190928 -1.224953 
				CHANNELS 3 Xrotation Yrotation Zrotation
				End Site
				{
					OFFSET 0.000000 -2.449906 4.627600 
				}
			}
		}
	}
	JOINT rThigh
	{
		OFFSET -5.308129 -1.633274 1.361059 
		CHANNELS 3 Xrotation Zrotation Yrotation
		JOINT rShin
		{
			OFFSET 2.041588 -20.007561 0.000000 
			CHANNELS 3 Xrotation Zrotation Yrotation
			JOINT rFoot
			{
				OFFSET 0.000000 -19.190928 -1.224953 
				CHANNELS 3 Xrotation Yrotation Zrotation
				End Site
				{
					OFFSET 0.000000 -2.449906 4.627600 
				}
			}
		}
	}
}
MOTION
Frames: 6
Frame Time: 0.033333
2.087717 51.442905 7.104808 6.855469 -1.582031 8.232422 24.894066 -10.795013 -7.981992 -19.511719 10.673829 1.962891 51.063168 8.107644 2.471410 -54.384766 -2.880859 1.396485 2.000000 -2.000000 0.000000 -64.052734 17.187498 21.123047 -65.875381 -1.349332 -2.558521 12.757408 63.174496 15.198443 -2.000000 2.000000 0.000000 77.568359 -46.513672 6.301509 74.443939 0.810732 -2.717248 -57.164326 -63.587109 67.390717 11.063236 13.739953 10.540306 20.230944 -5.050433 -1.970178 14.151947 2.032968 8.938833 -20.826767 -8.805313 -23.894571 17.193336 4.992286 0.988153 4.205932 -8.687760 0.006037 
1.419969 52.088909 8.639997 6.855469 -1.582031 7.871094 24.100903 -10.534026 -8.760423 -18.789063 10.810547 1.953125 51.063168 8.107644 2.471410 -53.144535 -2.822266 3.085937 2.000000 -2.000000 0.000000 -64.062500 19.238281 19.335934 -65.512047 -1.227811 -2.487363 11.271459 63.897835 14.588007 -2.000000 2.000000 0.000000 76.787109 -46.201172 7.590607 74.619720 0.810732 -2.717248 -56.585537 -63.989372 67.336884 9.096122 15.619906 11.991441 22.167328 -4.828417 -2.064778 30.331774 1.226357 13.338686 -18.589691 -7.222511 -24.247669 15.787593 4.982322 1.493329 5.240215 -8.497220 -0.151559 
0.821229 52.451286 10.005591 6.855469 -1.396484 7.382843 23.426146 -10.379985 -9.032388 -18.437502 10.625001 1.806641 51.063168 8.107644 2.471410 -52.099609 -2.910156 4.101563 2.000000 -2.000000 0.000000 -64.404297 21.005857 18.583982 -65.516640 -1.227686 -2.653602 11.349370 63.889008 14.127907 -2.000000 2.000000 0.000000 77.304688 -46.337891 6.819107 74.971573 0.791799 -2.728121 -56.177879 -64.528671 67.812973 9.931004 16.543314 13.615562 19.694334 -4.980311 -1.894784 43.139423 1.655113 17.138765 -17.105391 -6.236458 -24.080835 15.423182 5.000594 1.455918 5.225605 -8.621025 -0.398194 
0.320879 52.530083 11.123342 6.855469 -1.396484 7.031280 23.398237 -10.316573 -8.810808 -18.818359 10.292970 1.669922 51.063168 8.107644 2.471410 -51.054691 -3.173828 4.384766 2.000000 -2.000000 0.000000 -64.267578 22.968752 19.072266 -65.868484 -1.218503 -2.663914 10.904079 63.717640 12.668522 -2.000000 2.000000 0.000000 77.363281 -46.113285 6.347656 74.971573 0.791799 -2.728121 -55.875881 -65.034332 67.701149 7.748282 16.516134 14.206178 23.043125 -4.843783 -2.149975 45.141380 4.692455 16.587681 -15.942664 -5.640204 -24.011007 16.128092 4.972194 1.530052 3.652097 -8.745163 -0.964342 
-0.051328 52.593102 12.078012 6.855469 -1.240234 6.523438 23.478813 -10.339427 -8.053929 -19.550781 9.814453 1.455078 51.063168 8.107644 2.471410 -49.999996 -3.271484 4.169365 2.000000 -2.000000 0.000000 -65.078125 24.560547 18.890778 -66.044548 -1.209319 -2.674227 10.867470 63.160385 12.070595 -2.000000 2.000000 0.000000 76.767578 -45.781254 6.855469 75.147362 0.782049 -2.728685 -56.984283 -65.013931 68.229019 5.514904 16.314713 14.808721 27.649269 -4.650414 -2.510846 37.724022 8.626661 11.264323 -15.125751 -5.204229 -23.380516 16.492823 5.019308 0.913765 1.924315 -8.829119 -1.462353 
-0.421760 52.600967 12.941032 6.855469 -1.240234 5.996094 23.565477 -10.365102 -7.316948 -20.468750 9.335938 1.220703 51.063168 8.107644 2.471410 -49.130863 -3.330078 3.779297 2.000000 -2.000000 0.000000 -65.683594 26.318359 18.080503 -66.044281 -1.208753 -2.664482 10.393116 62.832672 11.567060 -2.000000 2.000000 0.000000 75.625000 -44.912109 8.342714 75.147362 0.782049 -2.728685 -57.652630 -64.586853 67.725266 2.370934 15.785530 15.076705 32.896156 -4.417616 -2.903813 26.930330 13.002008 5.066346 -14.263453 -4.478876 -23.795740 16.661894 5.000668 1.548857 0.693997 -8.765653 -2.122784 
